ffmpeg started on 2016-11-27 at 12:58:46
Report written to "Output/NVENCh264/results/ffmpeg/Tsintelllhq11000k.log"
Command line:
Tools/ffmpeg/ffmpeg -i Output/NVENCh264/encoded/sintelllhq11000k.mkv -c:v rawvideo -pix_fmt yuv420p Output/NVENCh264/transcoded/sintelllhq11000k.yuv
ffmpeg version N-82227-gdb23fde Copyright (c) 2000-2016 the FFmpeg developers
  built with gcc 5.4.0 (Ubuntu 5.4.0-6ubuntu1~16.04.2) 20160609
  configuration: --prefix=/home/jaroslav/ffmpeg_build --pkg-config-flags=--static --extra-cflags=-I/home/jaroslav/ffmpeg_build/include --extra-ldflags=-L/home/jaroslav/ffmpeg_build/lib --bindir=/home/jaroslav/bin --enable-gpl --enable-libass --enable-libfdk-aac --enable-libfreetype --enable-libmp3lame --enable-libopus --enable-libtheora --enable-libvorbis --enable-libvpx --enable-libx264 --enable-libx265 --enable-nvenc --enable-libmfx --enable-libxvid --enable-libgsm --enable-libopencore-amrnb --enable-version3 --enable-nonfree
  libavutil      55. 35.100 / 55. 35.100
  libavcodec     57. 66.101 / 57. 66.101
  libavformat    57. 57.100 / 57. 57.100
  libavdevice    57.  2.100 / 57.  2.100
  libavfilter     6. 66.100 /  6. 66.100
  libswscale      4.  3.100 /  4.  3.100
  libswresample   2.  4.100 /  2.  4.100
  libpostproc    54.  2.100 / 54.  2.100
Input #0, matroska,webm, from 'Output/NVENCh264/encoded/sintelllhq11000k.mkv':
  Metadata:
    ENCODER         : Lavf57.57.100
  Duration: 00:00:20.83, start: 0.000000, bitrate: 11058 kb/s
    Stream #0:0: Video: h264 (Main), yuv420p(progressive), 4096x1744 [SAR 1:1 DAR 256:109], 24 fps, 24 tbr, 1k tbn, 48 tbc (default)
    Metadata:
      ENCODER         : Lavc57.66.101 h264_nvenc
      DURATION        : 00:00:20.834000000
Output #0, rawvideo, to 'Output/NVENCh264/transcoded/sintelllhq11000k.yuv':
  Metadata:
    encoder         : Lavf57.57.100
    Stream #0:0: Video: rawvideo (I420 / 0x30323449), yuv420p, 4096x1744 [SAR 1:1 DAR 256:109], q=2-31, 200 kb/s, 24 fps, 24 tbn, 24 tbc (default)
    Metadata:
      DURATION        : 00:00:20.834000000
      encoder         : Lavc57.66.101 rawvideo
Stream mapping:
  Stream #0:0 -> #0:0 (h264 (native) -> rawvideo (native))
Press [q] to stop, [?] for help
frame=   19 fps=0.0 q=-0.0 size=  198816kB time=00:00:00.79 bitrate=2057305.2kbits/s speed=1.55x    frame=   39 fps= 38 q=-0.0 size=  408096kB time=00:00:01.62 bitrate=2057306.1kbits/s speed=1.59x    frame=   59 fps= 39 q=-0.0 size=  617376kB time=00:00:02.45 bitrate=2057306.4kbits/s speed=1.62x    frame=   79 fps= 39 q=-0.0 size=  826656kB time=00:00:03.29 bitrate=2057305.9kbits/s speed=1.63x    frame=   99 fps= 39 q=-0.0 size= 1035936kB time=00:00:04.12 bitrate=2057306.1kbits/s speed=1.63x    frame=  119 fps= 39 q=-0.0 size= 1245216kB time=00:00:04.95 bitrate=2057306.3kbits/s speed=1.63x    frame=  139 fps= 39 q=-0.0 size= 1454496kB time=00:00:05.79 bitrate=2057306.0kbits/s speed=1.63x    frame=  159 fps= 39 q=-0.0 size= 1663776kB time=00:00:06.62 bitrate=2057306.1kbits/s speed=1.63x    frame=  179 fps= 39 q=-0.0 size= 1873056kB time=00:00:07.45 bitrate=2057306.2kbits/s speed=1.64x    frame=  199 fps= 39 q=-0.0 size= 2082336kB time=00:00:08.29 bitrate=2057306.0kbits/s speed=1.64x    frame=  219 fps= 39 q=-0.0 size= 2291616kB time=00:00:09.12 bitrate=2057306.1kbits/s speed=1.64x    frame=  240 fps= 39 q=-0.0 size= 2511360kB time=00:00:10.00 bitrate=2057306.1kbits/s speed=1.64x    frame=  260 fps= 39 q=-0.0 size= 2720640kB time=00:00:10.83 bitrate=2057306.2kbits/s speed=1.64x    frame=  281 fps= 39 q=-0.0 size= 2940384kB time=00:00:11.70 bitrate=2057306.2kbits/s speed=1.64x    frame=  302 fps= 39 q=-0.0 size= 3160128kB time=00:00:12.58 bitrate=2057306.2kbits/s speed=1.64x    frame=  318 fps= 39 q=-0.0 size= 3327552kB time=00:00:13.25 bitrate=2057306.1kbits/s speed=1.62x    frame=  338 fps= 39 q=-0.0 size= 3536832kB time=00:00:14.08 bitrate=2057306.2kbits/s speed=1.62x    frame=  358 fps= 39 q=-0.0 size= 3746112kB time=00:00:14.91 bitrate=2057306.1kbits/s speed=1.62x    frame=  372 fps= 38 q=-0.0 size= 3892608kB time=00:00:15.50 bitrate=2057306.1kbits/s speed= 1.6x    frame=  392 fps= 38 q=-0.0 size= 4101888kB time=00:00:16.33 bitrate=2057306.2kbits/s speed= 1.6x    frame=  412 fps= 38 q=-0.0 size= 4311168kB time=00:00:17.16 bitrate=2057306.1kbits/s speed= 1.6x    frame=  430 fps= 38 q=-0.0 size= 4499520kB time=00:00:17.91 bitrate=2057306.1kbits/s speed=1.59x    frame=  443 fps= 38 q=-0.0 size= 4635552kB time=00:00:18.45 bitrate=2057306.1kbits/s speed=1.57x    frame=  460 fps= 38 q=-0.0 size= 4813440kB time=00:00:19.16 bitrate=2057306.1kbits/s speed=1.56x    frame=  480 fps= 38 q=-0.0 size= 5022720kB time=00:00:20.00 bitrate=2057306.1kbits/s speed=1.57x    frame=  497 fps= 37 q=-0.0 size= 5200608kB time=00:00:20.70 bitrate=2057306.1kbits/s speed=1.56x    frame=  500 fps= 37 q=-0.0 Lsize= 5232000kB time=00:00:20.83 bitrate=2057306.1kbits/s speed=1.56x    
video:5232000kB audio:0kB subtitle:0kB other streams:0kB global headers:0kB muxing overhead: 0.000000%
